<svg data-v-423bf9ae="" xmlns="http://www.w3.org/2000/svg" viewBox="0 0 405 90" class="iconLeft"><!----><!----><!----><g data-v-423bf9ae="" id="d98df6d0-e469-424d-9ba3-f5bd5f3d5d3e" fill="white" transform="matrix(4.524886474288662,0,0,4.524886474288662,108.68777611496031,-0.9728484095251986)"><path d="M3.50 13.20L3.50 13.72L0.29 13.72L0.29 13.20L1.44 12.91L1.68 5.95L0.55 5.67L0.55 5.15L3.23 5.15L5.60 11.91L7.85 5.15L10.64 5.15L10.64 5.67L9.39 5.96L9.67 12.91L10.93 13.20L10.93 13.72L7.11 13.72L7.11 13.20L8.34 12.91L8.12 6.92L5.77 13.72L4.97 13.86L2.48 6.90L2.27 12.91L3.50 13.20ZM14.90 13.87L14.90 13.87Q13.24 13.87 12.46 12.94L12.46 12.94L12.46 12.94Q11.68 12.01 11.68 10.32L11.68 10.32L11.68 10.32Q11.68 8.51 12.48 7.61L12.48 7.61L12.48 7.61Q13.29 6.71 14.74 6.71L14.74 6.71L14.74 6.71Q16.13 6.71 16.78 7.35L16.78 7.35L16.78 7.35Q17.43 7.99 17.43 9.37L17.43 9.37L17.43 9.37Q17.43 9.73 17.39 10.14L17.39 10.14L13.19 10.14L13.19 10.54L13.19 10.54Q13.19 11.77 13.71 12.40L13.71 12.40L13.71 12.40Q14.24 13.03 15.20 13.03L15.20 13.03L15.20 13.03Q16.10 13.03 17.25 12.71L17.25 12.71L17.35 13.20L17.35 13.20Q16.79 13.55 16.21 13.71L16.21 13.71L16.21 13.71Q15.64 13.87 14.90 13.87L14.90 13.87ZM13.22 9.56L15.97 9.41L15.97 9.10L15.97 9.10Q15.97 8.29 15.71 7.89L15.71 7.89L15.71 7.89Q15.44 7.49 14.83 7.49L14.83 7.49L14.83 7.49Q13.99 7.49 13.63 7.97L13.63 7.97L13.63 7.97Q13.27 8.46 13.22 9.56L13.22 9.56ZM22.13 7.70L22.13 7.70Q21.42 7.70 20.80 7.95L20.80 7.95L20.80 12.91L22.40 13.22L22.40 13.72L18.21 13.72L18.21 13.23L19.42 12.89L19.42 7.83L18.21 7.67L18.21 7.24L20.24 6.71L20.78 6.71L20.78 7.35L20.78 7.35Q21.25 7.04 21.83 6.86L21.83 6.86L21.83 6.86Q22.41 6.68 22.92 6.68L22.92 6.68L22.92 6.68Q23.18 6.68 23.30 6.69L23.30 6.69L23.06 8.86L22.43 8.86L22.13 7.70ZM28.10 13.55L28.10 13.55Q27.69 13.66 27.01 13.76L27.01 13.76L27.01 13.76Q26.33 13.85 25.97 13.85L25.97 13.85L25.97 13.85Q24.84 13.85 24.84 12.71L24.84 12.71L24.84 7.64L23.81 7.64L23.81 7.10L24.96 6.69L25.58 5.29L26.21 5.29L26.21 6.85L28.29 6.85L28.29 7.76L26.21 7.64L26.21 12.80L28.10 13.08L28.10 13.55ZM33.84 16.79L33.84 16.79Q33.40 16.79 33.10 16.66L33.10 16.66L33.21 16.25L33.21 16.25Q33.46 16.34 33.67 16.34L33.67 16.34L33.67 16.34Q34.13 16.34 34.41 16.09L34.41 16.09L34.41 16.09Q34.69 15.83 34.69 15.48L34.69 15.48L34.69 15.48Q34.69 15.20 34.45 15.03L34.45 15.03L34.45 15.03Q34.22 14.85 33.70 14.85L33.70 14.85L33.64 14.69L33.92 13.86L33.92 13.86Q33.36 13.85 32.75 13.73L32.75 13.73L32.75 13.73Q32.14 13.62 31.67 13.43L31.67 13.43L31.86 11.68L32.47 11.68L32.72 12.88L32.72 12.88Q33.43 13.08 34.17 13.08L34.17 13.08L34.17 13.08Q35 13.08 35.48 12.72L35.48 12.72L35.48 12.72Q35.97 12.36 35.97 11.75L35.97 11.75L35.97 11.75Q35.97 11.20 35.69 10.84L35.69 10.84L35.69 10.84Q35.41 10.47 34.75 10.21L34.75 10.21L33.26 9.62L33.26 9.62Q32.61 9.37 32.21 8.82L32.21 8.82L32.21 8.82Q31.82 8.27 31.82 7.38L31.82 7.38L31.82 7.38Q31.82 6.23 32.56 5.59L32.56 5.59L32.56 5.59Q33.31 4.94 34.66 4.94L34.66 4.94L34.66 4.94Q35.87 4.94 36.99 5.32L36.99 5.32L36.85 7.20L36.26 7.20L35.95 5.87L35.95 5.87Q35.77 5.81 35.41 5.77L35.41 5.77L35.41 5.77Q35.04 5.73 34.78 5.73L34.78 5.73L34.78 5.73Q33.99 5.73 33.53 6.06L33.53 6.06L33.53 6.06Q33.07 6.40 33.07 7.07L33.07 7.07L33.07 7.07Q33.07 7.62 33.38 7.96L33.38 7.96L33.38 7.96Q33.68 8.30 34.33 8.55L34.33 8.55L35.77 9.14L35.77 9.14Q36.55 9.45 36.92 9.98L36.92 9.98L36.92 9.98Q37.28 10.51 37.28 11.37L37.28 11.37L37.28 11.37Q37.28 12.47 36.55 13.13L36.55 13.13L36.55 13.13Q35.83 13.79 34.43 13.86L34.43 13.86L34.27 14.36L34.27 14.36Q34.99 14.36 35.36 14.65L35.36 14.65L35.36 14.65Q35.73 14.94 35.73 15.36L35.73 15.36L35.73 15.36Q35.73 15.74 35.47 16.07L35.47 16.07L35.47 16.07Q35.21 16.39 34.77 16.59L34.77 16.59L34.77 16.59Q34.33 16.79 33.84 16.79L33.84 16.79ZM40.94 7.56L40.94 7.56Q40.28 7.56 39.66 7.76L39.66 7.76L39.34 8.95L38.79 8.95L38.56 7.22L38.56 7.22Q39.96 6.71 41.26 6.71L41.26 6.71L41.26 6.71Q42.32 6.71 42.88 7.06L42.88 7.06L42.88 7.06Q43.44 7.42 43.44 8.30L43.44 8.30L43.44 12.80L44.65 13.09L44.65 13.55L44.65 13.55Q43.86 13.78 43.15 13.78L43.15 13.78L43.15 13.78Q42.76 13.78 42.46 13.58L42.46 13.58L42.46 13.58Q42.17 13.38 42.08 13.02L42.08 13.02L42.08 13.02Q41.51 13.44 40.95 13.66L40.95 13.66L40.95 13.66Q40.39 13.87 39.77 13.87L39.77 13.87L39.77 13.87Q39.05 13.87 38.63 13.37L38.63 13.37L38.63 13.37Q38.22 12.87 38.22 12.15L38.22 12.15L38.22 12.15Q38.22 11.48 38.61 10.92L38.61 10.92L38.61 10.92Q38.99 10.36 40.00 10.18L40.00 10.18L42.06 9.80L42.06 8.68L42.06 8.68Q42.06 8.11 41.81 7.83L41.81 7.83L41.81 7.83Q41.57 7.56 40.94 7.56L40.94 7.56ZM40.78 10.70L40.78 10.70Q39.63 10.92 39.63 11.94L39.63 11.94L39.63 11.94Q39.63 12.92 40.57 12.92L40.57 12.92L40.57 12.92Q41.17 12.92 42.06 12.45L42.06 12.45L42.06 10.47L40.78 10.70ZM48.59 13.19L48.59 13.72L45.14 13.72L45.14 13.19L46.35 12.91L46.35 4.63L45.14 4.49L45.14 4.06L47.31 3.53L47.74 3.53L47.74 12.91L48.59 13.19ZM52.86 13.20L52.86 13.72L49.59 13.72L49.59 13.19L50.20 12.95L47.92 10.11L49.95 7.60L48.83 7.34L48.83 6.85L52.43 6.85L52.43 7.34L51.10 7.62L49.31 9.77L51.86 12.92L52.86 13.20ZM55.94 7.56L55.94 7.56Q55.29 7.56 54.67 7.76L54.67 7.76L54.35 8.95L53.80 8.95L53.56 7.22L53.56 7.22Q54.96 6.71 56.27 6.71L56.27 6.71L56.27 6.71Q57.33 6.71 57.89 7.06L57.89 7.06L57.89 7.06Q58.45 7.42 58.45 8.30L58.45 8.30L58.45 12.80L59.65 13.09L59.65 13.55L59.65 13.55Q58.87 13.78 58.16 13.78L58.16 13.78L58.16 13.78Q57.76 13.78 57.47 13.58L57.47 13.58L57.47 13.58Q57.18 13.38 57.09 13.02L57.09 13.02L57.09 13.02Q56.52 13.44 55.96 13.66L55.96 13.66L55.96 13.66Q55.40 13.87 54.78 13.87L54.78 13.87L54.78 13.87Q54.05 13.87 53.64 13.37L53.64 13.37L53.64 13.37Q53.23 12.87 53.23 12.15L53.23 12.15L53.23 12.15Q53.23 11.48 53.61 10.92L53.61 10.92L53.61 10.92Q54.00 10.36 55.01 10.18L55.01 10.18L57.06 9.80L57.06 8.68L57.06 8.68Q57.06 8.11 56.82 7.83L56.82 7.83L56.82 7.83Q56.57 7.56 55.94 7.56L55.94 7.56ZM55.79 10.70L55.79 10.70Q54.64 10.92 54.64 11.94L54.64 11.94L54.64 11.94Q54.64 12.92 55.58 12.92L55.58 12.92L55.58 12.92Q56.18 12.92 57.06 12.45L57.06 12.45L57.06 10.47L55.79 10.70ZM64.15 7.70L64.15 7.70Q63.43 7.70 62.82 7.95L62.82 7.95L62.82 12.91L64.41 13.22L64.41 13.72L60.23 13.72L60.23 13.23L61.43 12.89L61.43 7.83L60.23 7.67L60.23 7.24L62.26 6.71L62.79 6.71L62.79 7.35L62.79 7.35Q63.27 7.04 63.85 6.86L63.85 6.86L63.85 6.86Q64.43 6.68 64.93 6.68L64.93 6.68L64.93 6.68Q65.20 6.68 65.31 6.69L65.31 6.69L65.07 8.86L64.44 8.86L64.15 7.70Z"></path></g><!----><g data-v-423bf9ae="" id="282cfea1-fd65-45ef-ace5-01a62656f334" transform="matrix(2.8125,0,0,2.8125,0,0)" stroke="none" fill="white"><path d="M0 32h32V0H0v32zm19.377-19.492l6.936-6.936v20.855h-6.936V12.508zM5.688 5.572l6.936 6.936v13.919H5.688V5.572z"></path></g><!----></svg>